<?xml version="1.0" encoding="UTF-8"?>
<mxfile host="www.draw.io" modified="2020-09-03T15:23:00.690Z" agent="5.0 (Macintosh)" etag="EshPyAp8_AXMeqMTNtBm" version="13.6.6">
  <diagram id="ckf_myOhQqImMAee-VdR" name="Page-1">
    <mxGraphModel dx="990" dy="817" grid="1" gridSize="10" guides="1" tooltips="1" connect="1" arrows="1" fold="1" page="1" pageScale="1" pageWidth="827" pageHeight="1169" math="0" shadow="0">
      <root>
        <mxCell id="0" />
        <mxCell id="1" parent="0" />
        <mxCell id="34" value="Im Gespräch mit dem Kunden wird die zu leistende Arbeit formuliert. In der Regel erfolgt dies durch einen Besuch vor Ort." style="rounded=0;whiteSpace=wrap;html=1;align=left;horizontal=1;verticalAlign=top;strokeColor=none;" parent="1" vertex="1">
          <mxGeometry x="360" y="180" width="360" height="100" as="geometry" />
        </mxCell>
        <mxCell id="2" value="" style="endArrow=none;html=1;" parent="1" edge="1">
          <mxGeometry width="50" height="50" relative="1" as="geometry">
            <mxPoint x="80" y="109.5" as="sourcePoint" />
            <mxPoint x="200" y="109.5" as="targetPoint" />
          </mxGeometry>
        </mxCell>
        <mxCell id="7" value="Angebotsanfrage" style="text;html=1;strokeColor=none;fillColor=none;align=center;verticalAlign=middle;whiteSpace=wrap;rounded=0;" parent="1" vertex="1">
          <mxGeometry x="80" y="80" width="120" height="20" as="geometry" />
        </mxCell>
        <mxCell id="9" value="" style="endArrow=none;html=1;" parent="1" edge="1">
          <mxGeometry width="50" height="50" relative="1" as="geometry">
            <mxPoint x="140" y="190" as="sourcePoint" />
            <mxPoint x="140" y="110" as="targetPoint" />
          </mxGeometry>
        </mxCell>
        <mxCell id="15" value="" style="verticalLabelPosition=bottom;verticalAlign=top;html=1;shape=hexagon;perimeter=hexagonPerimeter2;arcSize=6;size=0.15098444620768228;" parent="1" vertex="1">
          <mxGeometry x="80" y="590" width="120" height="80" as="geometry" />
        </mxCell>
        <mxCell id="16" value="Angebot angenommen?" style="text;html=1;strokeColor=none;fillColor=none;align=center;verticalAlign=middle;whiteSpace=wrap;rounded=0;" parent="1" vertex="1">
          <mxGeometry x="80" y="590" width="120" height="80" as="geometry" />
        </mxCell>
        <mxCell id="18" value="" style="endArrow=none;html=1;" parent="1" edge="1">
          <mxGeometry width="50" height="50" relative="1" as="geometry">
            <mxPoint x="140" y="290" as="sourcePoint" />
            <mxPoint x="140" y="270" as="targetPoint" />
          </mxGeometry>
        </mxCell>
        <mxCell id="23" value="" style="endArrow=none;html=1;" parent="1" edge="1">
          <mxGeometry width="50" height="50" relative="1" as="geometry">
            <mxPoint x="80" y="529" as="sourcePoint" />
            <mxPoint x="200" y="529" as="targetPoint" />
          </mxGeometry>
        </mxCell>
        <mxCell id="25" value="" style="endArrow=none;html=1;" parent="1" edge="1">
          <mxGeometry width="50" height="50" relative="1" as="geometry">
            <mxPoint x="80" y="540" as="sourcePoint" />
            <mxPoint x="200" y="540" as="targetPoint" />
          </mxGeometry>
        </mxCell>
        <mxCell id="35" value="" style="endArrow=none;html=1;exitX=0.5;exitY=0;exitDx=0;exitDy=0;entryX=0.5;entryY=1;entryDx=0;entryDy=0;" parent="1" target="16" edge="1">
          <mxGeometry width="50" height="50" relative="1" as="geometry">
            <mxPoint x="140" y="701" as="sourcePoint" />
            <mxPoint x="440" y="708" as="targetPoint" />
          </mxGeometry>
        </mxCell>
        <mxCell id="36" value="Anfrage beurteilen" style="rounded=0;whiteSpace=wrap;html=1;" parent="1" vertex="1">
          <mxGeometry x="80" y="220" width="120" height="50" as="geometry" />
        </mxCell>
        <mxCell id="37" value="CMO" style="rounded=0;whiteSpace=wrap;html=1;" parent="1" vertex="1">
          <mxGeometry x="80" y="190" width="120" height="30" as="geometry" />
        </mxCell>
        <mxCell id="38" value="" style="rounded=0;whiteSpace=wrap;html=1;align=left;horizontal=1;verticalAlign=top;strokeColor=none;" parent="1" vertex="1">
          <mxGeometry x="760" y="180" width="160" height="100" as="geometry" />
        </mxCell>
        <mxCell id="39" value="Ein potentieller Kunde meldet sich in irgendeiner Form mit einer Anfrage. Er möchte eine Dienstleistung beauftragen und hierfür die Machbarkeit und den Aufwand beurteilen lassen." style="rounded=0;whiteSpace=wrap;html=1;align=left;horizontal=1;verticalAlign=top;strokeColor=none;" parent="1" vertex="1">
          <mxGeometry x="360" y="80" width="360" height="100" as="geometry" />
        </mxCell>
        <mxCell id="42" value="" style="endArrow=none;html=1;" parent="1" edge="1">
          <mxGeometry width="50" height="50" relative="1" as="geometry">
            <mxPoint x="140" y="390" as="sourcePoint" />
            <mxPoint x="140" y="370" as="targetPoint" />
          </mxGeometry>
        </mxCell>
        <mxCell id="43" value="Angebot erstellen" style="rounded=0;whiteSpace=wrap;html=1;fillColor=#fff2cc;strokeColor=#000000;" parent="1" vertex="1">
          <mxGeometry x="80" y="320" width="120" height="50" as="geometry" />
        </mxCell>
        <mxCell id="44" value="CMO" style="rounded=0;whiteSpace=wrap;html=1;" parent="1" vertex="1">
          <mxGeometry x="80" y="290" width="120" height="30" as="geometry" />
        </mxCell>
        <mxCell id="45" value="Das Angebot besteht aus den folgenden Abschnitten:&lt;br&gt;- Arbeit nach Aufwand&lt;br&gt;- Arbeit pauschal&lt;br&gt;- Unterschiedliche Materialien in entsprechenden Mengen" style="rounded=0;whiteSpace=wrap;html=1;align=left;horizontal=1;verticalAlign=top;strokeColor=none;" parent="1" vertex="1">
          <mxGeometry x="360" y="280" width="360" height="100" as="geometry" />
        </mxCell>
        <mxCell id="46" value="Angebot" style="rounded=0;whiteSpace=wrap;html=1;align=left;horizontal=1;verticalAlign=top;strokeColor=none;" parent="1" vertex="1">
          <mxGeometry x="760" y="280" width="160" height="100" as="geometry" />
        </mxCell>
        <mxCell id="47" value="" style="endArrow=none;html=1;" parent="1" edge="1">
          <mxGeometry width="50" height="50" relative="1" as="geometry">
            <mxPoint x="140" y="390" as="sourcePoint" />
            <mxPoint x="140" y="370" as="targetPoint" />
          </mxGeometry>
        </mxCell>
        <mxCell id="49" value="Angebot senden" style="rounded=0;whiteSpace=wrap;html=1;fillColor=#fff2cc;strokeColor=#000000;" parent="1" vertex="1">
          <mxGeometry x="80" y="420" width="120" height="50" as="geometry" />
        </mxCell>
        <mxCell id="50" value="Bauleiter" style="rounded=0;whiteSpace=wrap;html=1;" parent="1" vertex="1">
          <mxGeometry x="80" y="390" width="120" height="30" as="geometry" />
        </mxCell>
        <mxCell id="53" value="In der Regel per eMail.&lt;br&gt;Falls ausdrücklich gewünscht per Briefpost.&lt;br&gt;&lt;br&gt;" style="rounded=0;whiteSpace=wrap;html=1;align=left;horizontal=1;verticalAlign=top;strokeColor=none;" parent="1" vertex="1">
          <mxGeometry x="360" y="380" width="360" height="100" as="geometry" />
        </mxCell>
        <mxCell id="54" value="Angebot" style="rounded=0;whiteSpace=wrap;html=1;align=left;horizontal=1;verticalAlign=top;strokeColor=none;" parent="1" vertex="1">
          <mxGeometry x="760" y="380" width="160" height="100" as="geometry" />
        </mxCell>
        <mxCell id="55" value="Mit dem Kunden wird zeitnah telefoniert um sicherzustellen, dass des Angebot richtig verstanden wird." style="rounded=0;whiteSpace=wrap;html=1;align=left;horizontal=1;verticalAlign=top;strokeColor=none;" parent="1" vertex="1">
          <mxGeometry x="360" y="480" width="360" height="100" as="geometry" />
        </mxCell>
        <mxCell id="56" value="Auftrag bestätigen" style="rounded=0;whiteSpace=wrap;html=1;fillColor=#fff2cc;strokeColor=#000000;" parent="1" vertex="1">
          <mxGeometry x="80" y="720" width="120" height="50" as="geometry" />
        </mxCell>
        <mxCell id="57" value="Bauleiter" style="rounded=0;whiteSpace=wrap;html=1;" parent="1" vertex="1">
          <mxGeometry x="80" y="690" width="120" height="30" as="geometry" />
        </mxCell>
        <mxCell id="62" value="Auftragsbestätigung" style="text;html=1;strokeColor=none;fillColor=none;align=center;verticalAlign=middle;whiteSpace=wrap;rounded=0;" parent="1" vertex="1">
          <mxGeometry x="80" y="850" width="120" height="20" as="geometry" />
        </mxCell>
        <mxCell id="63" value="" style="endArrow=none;html=1;" parent="1" edge="1">
          <mxGeometry width="50" height="50" relative="1" as="geometry">
            <mxPoint x="80" y="840" as="sourcePoint" />
            <mxPoint x="200" y="840" as="targetPoint" />
          </mxGeometry>
        </mxCell>
        <mxCell id="64" value="" style="endArrow=none;html=1;entryX=0.5;entryY=1;entryDx=0;entryDy=0;" parent="1" target="56" edge="1">
          <mxGeometry width="50" height="50" relative="1" as="geometry">
            <mxPoint x="140" y="840" as="sourcePoint" />
            <mxPoint x="240" y="760" as="targetPoint" />
          </mxGeometry>
        </mxCell>
        <mxCell id="65" value="" style="endArrow=none;html=1;" parent="1" source="16" edge="1">
          <mxGeometry width="50" height="50" relative="1" as="geometry">
            <mxPoint x="390" y="740" as="sourcePoint" />
            <mxPoint x="140" y="540" as="targetPoint" />
          </mxGeometry>
        </mxCell>
        <mxCell id="66" value="" style="endArrow=none;html=1;entryX=0.5;entryY=1;entryDx=0;entryDy=0;" parent="1" target="49" edge="1">
          <mxGeometry width="50" height="50" relative="1" as="geometry">
            <mxPoint x="140" y="530" as="sourcePoint" />
            <mxPoint x="440" y="690" as="targetPoint" />
          </mxGeometry>
        </mxCell>
        <mxCell id="68" value="Abgelehntes Angebot" style="text;html=1;strokeColor=none;fillColor=none;align=center;verticalAlign=middle;whiteSpace=wrap;rounded=0;" parent="1" vertex="1">
          <mxGeometry x="220" y="850" width="120" height="20" as="geometry" />
        </mxCell>
        <mxCell id="69" value="" style="endArrow=none;html=1;" parent="1" edge="1">
          <mxGeometry width="50" height="50" relative="1" as="geometry">
            <mxPoint x="220" y="840" as="sourcePoint" />
            <mxPoint x="340" y="840" as="targetPoint" />
          </mxGeometry>
        </mxCell>
        <mxCell id="78" value="" style="edgeStyle=orthogonalEdgeStyle;rounded=0;orthogonalLoop=1;jettySize=auto;html=1;strokeColor=none;startArrow=none;startFill=0;" parent="1" target="77" edge="1">
          <mxGeometry relative="1" as="geometry">
            <mxPoint x="400" y="620" as="sourcePoint" />
          </mxGeometry>
        </mxCell>
        <mxCell id="77" value="Nein" style="text;html=1;strokeColor=none;fillColor=none;align=left;verticalAlign=middle;whiteSpace=wrap;rounded=0;" parent="1" vertex="1">
          <mxGeometry x="210" y="610" width="70" height="20" as="geometry" />
        </mxCell>
        <mxCell id="75" value="Ja" style="text;html=1;strokeColor=none;fillColor=none;align=left;verticalAlign=middle;whiteSpace=wrap;rounded=0;" parent="1" vertex="1">
          <mxGeometry x="150" y="670" width="70" height="20" as="geometry" />
        </mxCell>
        <mxCell id="79" value="" style="endArrow=none;html=1;edgeStyle=orthogonalEdgeStyle;entryX=1;entryY=0.5;entryDx=0;entryDy=0;rounded=0;" parent="1" target="16" edge="1">
          <mxGeometry width="50" height="50" relative="1" as="geometry">
            <mxPoint x="280" y="840" as="sourcePoint" />
            <mxPoint x="380" y="770" as="targetPoint" />
            <Array as="points">
              <mxPoint x="280" y="630" />
            </Array>
          </mxGeometry>
        </mxCell>
        <mxCell id="80" value="Auftragsbestätigung" style="rounded=0;whiteSpace=wrap;html=1;align=left;horizontal=1;verticalAlign=top;strokeColor=none;" parent="1" vertex="1">
          <mxGeometry x="760" y="680" width="160" height="100" as="geometry" />
        </mxCell>
        <mxCell id="81" value="Der Auftrag wird schriftlich bestätigt." style="rounded=0;whiteSpace=wrap;html=1;align=left;horizontal=1;verticalAlign=top;strokeColor=none;" parent="1" vertex="1">
          <mxGeometry x="360" y="680" width="360" height="100" as="geometry" />
        </mxCell>
      </root>
    </mxGraphModel>
  </diagram>
</mxfile>
